<svg width="140" height="34" viewBox="0 0 140 34" fill="none" xmlns="http://www.w3.org/2000/svg">
<path fill-rule="evenodd" clip-rule="evenodd" d="M137.695 23.5446C137.263 23.2326 136.921 23.188 136.638 23.7827C131.79 34.267 123.626 29.0323 124.444 29.4933C126.258 28.6608 131.017 24.8533 130.303 19.5741C129.872 16.3472 127.106 14.9194 124.161 15.4399C119.031 16.3323 117.157 21.8643 118.109 26.7571C118.272 27.6046 118.57 28.2887 118.882 28.9728C113.097 33.687 110.792 24.7642 110.524 23.6936C110.51 23.634 115.001 19.9013 116.25 10.9935C117.558 1.66895 114.584 -0.0412458 111.536 0.0182794C105.899 0.122109 104.382 11.8855 106.42 21.686C106.256 21.7303 105.453 22.1766 104.174 22.2215C103.252 19.3216 99.3112 16.7783 98.2851 17.7598C95.7122 20.2136 98.9097 25.0023 101.17 25.3738C99.8167 33.7169 91.3402 31.6495 92.9164 21.1951C95.6676 16.0792 97.7795 8.45021 97.3928 3.85508C97.259 2.23403 96.0544 0.0481791 93.3328 0.152009C88.0981 0.360211 87.5331 12.1236 88.1427 20.4814C88.1131 20.2732 87.8157 21.4925 85.6739 22.1024C85.1684 19.2917 80.6327 16.4513 79.5621 17.8193C77.5692 20.3623 81.0342 24.8982 82.6702 25.2102C81.3169 33.5533 72.8401 31.4862 74.4166 21.0318C77.1827 15.9156 79.2794 8.30153 78.9076 3.7064C78.7739 2.08535 77.5692 -0.100771 74.8477 0.00360173C69.613 0.211532 69.0479 11.9747 69.6578 20.3327C69.6279 20.1242 69.3303 21.3884 67.0996 21.9834C67.0254 18.3249 62.4748 16.6593 61.3743 17.8193C59.426 19.9013 61.8203 24.1692 64.0361 25.2102C62.683 33.5533 54.2063 31.4862 55.7827 21.0318C58.5339 15.9156 60.6456 8.28658 60.2591 3.69145C60.14 2.08536 58.9354 -0.100771 56.2138 0.00360173C50.9791 0.211532 50.563 12.5697 51.1724 20.9274C49.4472 28.3186 43.6624 37.5387 44.4208 19.0536C44.4952 17.7598 44.5697 17.2692 43.9301 16.7783C43.4395 16.4067 42.339 16.585 41.7438 16.5997C41.0153 16.6296 40.8221 17.0607 40.6731 17.7003C40.3016 19.3662 40.2271 20.9869 40.1676 23.2027C40.1379 24.2437 40.0485 24.7196 39.6471 26.1325C39.2456 27.545 36.9853 30.1179 35.7361 29.6868C34.0109 29.0919 34.576 24.2287 34.903 20.8828C35.171 18.236 34.3083 17.0607 32.1075 16.6296C30.8134 16.3622 30.0254 16.4067 28.6871 15.9751C27.408 15.5737 27.1256 13.1647 24.4189 13.9678C22.9319 14.4139 23.8835 17.5519 23.5266 19.8867C21.7718 31.3522 18.1283 31.6645 16.433 26.1026C24.0471 7.42414 18.6189 0.0625862 15.4515 0.0625862C12.1499 0.0625862 8.37267 2.3384 9.96381 16.9123C9.19053 16.6891 8.9527 16.5701 8.08999 16.5701C3.28639 16.5552 0 20.4517 0 25.2548C0 30.0584 3.28639 33.955 8.10494 33.955C10.9453 33.955 12.9382 32.6609 14.4548 30.6681C15.4366 32.0812 16.6412 33.9844 18.842 33.8955C25.3857 33.6424 27.2889 20.2136 27.5121 19.455C28.2111 19.5591 28.8803 19.7676 29.5199 19.8717C30.5905 20.0351 30.6799 20.4664 30.65 21.5373C30.3674 30.6681 32.0479 33.8656 35.8701 33.8656C37.9964 33.8656 39.9001 31.7686 41.2088 30.2816C42.1903 32.3041 43.7366 33.806 45.8339 33.8656C50.89 33.9843 52.8383 25.9243 52.6597 26.9799C52.5257 27.813 54.2954 33.806 59.5154 33.8359C65.9694 33.8656 67.1741 26.772 67.3081 25.5823C67.3377 25.3738 67.323 25.3442 67.3081 25.5823V25.6565C69.3602 25.2697 70.4159 24.1842 70.4159 24.1842C70.4159 24.1842 72.0668 33.955 78.1493 33.8509C84.4698 33.7318 85.6739 27.3221 85.8229 26.0729C85.8525 25.8055 85.8378 25.7753 85.8229 26.0729V26.1026C88.2618 25.2102 88.9013 24.3331 88.9013 24.3331C88.9013 24.3331 90.2101 33.9104 96.6344 33.9993C102.36 34.0738 104.486 28.1995 104.501 25.746C105.468 25.7604 107.253 25.1659 107.208 25.1363C107.208 25.1363 109.305 33.5087 115.164 33.94C117.915 34.148 119.982 32.3932 121.157 31.5903C123.923 33.8359 133.129 36.6913 138.944 26.8315C139.776 25.4334 138.007 23.7531 137.695 23.5446ZM7.86711 30.698C5.05611 30.698 3.25676 28.0957 3.25676 25.2997C3.25676 22.5039 4.9077 19.9013 7.71844 19.9013C8.98233 19.9013 9.68114 20.0351 10.6778 20.8978C10.8564 21.5969 11.362 23.2176 11.6145 23.9613C11.9415 24.9428 12.3432 25.7905 12.73 26.6975C12.1499 29.0473 10.3057 30.698 7.86711 30.698ZM14.7079 20.9722C14.5888 20.7787 14.6187 20.8978 14.4847 20.7192C13.9792 19.3216 12.9827 16.1983 12.8637 12.6442C12.73 8.62878 13.3992 3.9146 15.3771 3.9146C16.7154 3.9146 18.1432 13.462 14.7079 20.9722ZM54.2805 16.7933C53.9684 14.4139 53.9535 3.7806 56.4965 4.07823C57.9093 4.64331 55.6042 14.6667 54.2805 16.7933ZM72.9143 16.7933C72.6023 14.4139 72.5873 3.7806 75.1306 4.07823C76.5432 4.64331 74.238 14.6667 72.9143 16.7933ZM91.3997 16.9419C91.0872 14.5625 91.0725 3.92955 93.6155 4.22663C95.0281 4.77731 92.7232 14.8153 91.3997 16.9419ZM111.803 3.43867C114.138 3.20057 114.034 13.3878 109.364 19.8122C108.754 17.4923 107.833 4.24158 111.803 3.43867ZM121.618 25.3738C120.875 21.5819 122.808 19.0981 124.801 18.8304C125.5 18.7266 126.511 19.1726 126.704 20.0201C127.032 21.6115 126.66 23.9762 122.184 26.965C122.198 26.9799 121.782 26.2069 121.618 25.3738ZM42.5173 13.6849C44.1087 13.6849 45.4022 12.3911 45.4022 10.8C45.4022 9.20881 44.1087 7.91502 42.5173 7.91502C40.9262 7.91502 39.6321 9.20881 39.6321 10.8C39.6321 12.3911 40.9262 13.6849 42.5173 13.6849Z" fill="white"/>
</svg>
