<svg width="35" height="34" viewBox="0 0 35 34" fill="none" xmlns="http://www.w3.org/2000/svg">
<path fill-rule="evenodd" clip-rule="evenodd" d="M33.8195 13.577C33.5967 12.485 33.2618 11.4094 32.8285 10.382C32.4028 9.37319 31.8746 8.40218 31.2612 7.49443C30.6525 6.59424 29.9545 5.74839 29.1856 4.98024C28.4174 4.21072 27.5708 3.51202 26.6712 2.9048C25.7634 2.28931 24.791 1.76323 23.7835 1.33618C22.756 0.903623 21.6811 0.568031 20.5883 0.346595C19.4693 0.116907 18.3167 0 17.1654 0C16.0128 0 14.8615 0.116907 13.7412 0.346595C12.6491 0.568031 11.5735 0.90431 10.5467 1.33618C9.5392 1.76323 8.56675 2.29 7.65757 2.9048C6.75733 3.51202 5.91142 4.21003 5.14323 4.98024C4.37435 5.74839 3.67699 6.59493 3.06903 7.49443C2.45489 8.40218 1.9274 9.37319 1.5017 10.382C1.06636 11.4094 0.732815 12.485 0.509303 13.577C0.280289 14.6945 0.164062 15.8471 0.164062 16.999C0.164062 18.1529 0.280289 19.3055 0.509303 20.4237C0.732815 21.5157 1.06705 22.5913 1.50101 23.618C1.92671 24.6254 2.45489 25.5992 3.06835 26.5069C3.6763 27.4071 4.37366 28.2516 5.14254 29.0211C5.91074 29.7893 6.75733 30.4866 7.65688 31.0952C8.56606 31.7093 9.53851 32.2368 10.546 32.6624C11.5721 33.0978 12.6484 33.4292 13.7405 33.6534C14.8609 33.8845 16.0121 34 17.1647 34C18.316 34 19.4686 33.8845 20.5876 33.6534C21.6811 33.4292 22.7553 33.0971 23.7828 32.6624C24.7903 32.2368 25.7627 31.7086 26.6706 31.0952C27.5708 30.4866 28.4167 29.79 29.1849 29.0211C29.9531 28.2516 30.6518 27.4064 31.2605 26.5069C31.8746 25.5992 32.4021 24.6254 32.8278 23.618C33.2618 22.5919 33.596 21.5157 33.8188 20.4237C34.0485 19.3048 34.1641 18.1522 34.1641 16.999C34.1647 15.8471 34.0492 14.6945 33.8195 13.577ZM31.6779 16.8552C31.4682 16.8099 26.555 15.7522 21.5662 16.3794C21.4644 16.1311 21.3606 15.8808 21.2533 15.6298C20.9514 14.9194 20.6261 14.2152 20.2877 13.5241C26.022 11.1846 28.35 7.81833 28.3768 7.77844C30.4132 10.25 31.6449 13.4092 31.6779 16.8552ZM26.7538 6.10392C26.7173 6.16031 24.65 9.30717 19.1702 11.3613C16.6882 6.80124 13.9613 3.17918 13.7433 2.89173C14.8409 2.62559 15.9853 2.48187 17.1647 2.48187C20.8414 2.48187 24.1954 3.85174 26.7538 6.10392ZM13.6869 2.90342L13.6841 2.90617C13.6841 2.90617 13.6683 2.9103 13.6415 2.9158C13.656 2.91167 13.6725 2.90892 13.6869 2.90342ZM10.9697 3.86893C11.1629 4.12819 13.8485 7.76813 16.3615 12.234C9.38996 14.0859 3.34 14.0137 2.95625 14.0068C3.89981 9.51004 6.92101 5.7814 10.9697 3.86893ZM2.64608 16.999C2.64608 16.8442 2.65296 16.6929 2.65846 16.5403C2.91429 16.5458 10.0887 16.7088 17.5636 14.4717C17.9797 15.2859 18.3779 16.1132 18.7417 16.9398C18.5498 16.9935 18.3586 17.0512 18.1695 17.1131C10.3342 19.6452 6.35982 26.6954 6.35982 26.6954C6.35982 26.6954 6.36532 26.6995 6.36532 26.7023C4.05386 24.1296 2.64608 20.729 2.64608 16.999ZM17.1647 31.5181C13.6511 31.5181 10.4284 30.2693 7.91684 28.1911C8.10734 28.3458 8.24214 28.4449 8.24214 28.4449C8.24214 28.4449 11.0254 22.3753 19.6351 19.3756C19.6674 19.3632 19.6997 19.3543 19.732 19.3447C21.7753 24.6529 22.6184 29.0988 22.8337 30.3676C21.091 31.109 19.1757 31.5181 17.1647 31.5181ZM25.2779 29.0418C25.13 28.165 24.3563 23.904 22.452 18.6714C27.1382 17.9218 31.2006 19.2071 31.4998 19.3055C30.8533 23.3505 28.5377 26.8398 25.2779 29.0418Z" fill="white"/>
</svg>
