<svg width="33" height="32" viewBox="0 0 33 32" fill="none" xmlns="http://www.w3.org/2000/svg">
<g clip-path="url(#clip0_196_96)">
<path d="M16.1641 2.88243C20.4365 2.88243 20.9421 2.89894 22.6296 2.97579C24.1895 3.04693 25.0367 3.30733 25.6007 3.52644C26.2965 3.78265 26.9259 4.19177 27.4426 4.72365C27.9744 5.24027 28.3836 5.86969 28.6398 6.56551C28.8589 7.12949 29.1193 7.97675 29.1904 9.53661C29.2673 11.2241 29.2838 11.7297 29.2838 16.0022C29.2838 20.2746 29.2673 20.7802 29.1904 22.4677C29.1193 24.0276 28.8589 24.8748 28.6398 25.4388C28.3733 26.1287 27.9655 26.7552 27.4426 27.2781C26.9196 27.801 26.2931 28.2088 25.6033 28.4753C25.0393 28.6944 24.192 28.9548 22.6321 29.026C20.9453 29.1028 20.4391 29.1193 16.1666 29.1193C11.8941 29.1193 11.3879 29.1028 9.70106 29.026C8.1412 28.9548 7.29395 28.6944 6.72996 28.4753C6.03415 28.2191 5.40472 27.81 4.8881 27.2781C4.35622 26.7615 3.9471 26.1321 3.6909 25.4363C3.47178 24.8723 3.21138 24.025 3.14025 22.4652C3.0634 20.7776 3.04688 20.2721 3.04688 15.9996C3.04688 11.7271 3.0634 11.2216 3.14025 9.53407C3.21138 7.97421 3.47178 7.12695 3.6909 6.56296C3.9471 5.86715 4.35622 5.23773 4.8881 4.72111C5.40472 4.18923 6.03415 3.78011 6.72996 3.5239C7.29395 3.30479 8.1412 3.04439 9.70106 2.97325C11.3886 2.8964 11.8941 2.87989 16.1666 2.87989M16.1666 -0.00292969C11.8211 -0.00292969 11.2762 0.0154889 9.56959 0.0936089C7.86301 0.171729 6.70074 0.444196 5.68455 0.839242C4.61665 1.24124 3.64915 1.87107 2.84936 2.68491C2.03552 3.4847 1.40569 4.4522 1.00369 5.52009C0.608648 6.53629 0.338086 7.7011 0.260601 9.40387C0.183116 11.1066 0.164062 11.6541 0.164062 15.9996C0.164062 20.3451 0.182481 20.8901 0.260601 22.5966C0.338721 24.3032 0.608648 25.4629 1.00369 26.4791C1.40586 27.5466 2.03567 28.5136 2.84936 29.313C3.64888 30.1274 4.61644 30.7575 5.68455 31.1593C6.70074 31.555 7.86555 31.8256 9.56832 31.9031C11.2711 31.9806 11.8198 31.9996 16.1653 31.9996C20.5108 31.9996 21.0558 31.9812 22.7624 31.9031C24.4689 31.825 25.6274 31.555 26.6436 31.1593C27.7068 30.7485 28.6724 30.12 29.4784 29.314C30.2844 28.508 30.913 27.5424 31.3238 26.4791C31.7195 25.4629 31.99 24.2981 32.0675 22.5954C32.145 20.8926 32.1641 20.3438 32.1641 15.9983C32.1641 11.6528 32.1456 11.1079 32.0675 9.40133C31.9894 7.69475 31.7195 6.53629 31.3238 5.52009C30.9221 4.45256 30.2925 3.48546 29.4788 2.68618C28.6791 1.87188 27.7116 1.24161 26.6436 0.839242C25.6274 0.444196 24.4626 0.173634 22.7598 0.0961494C21.057 0.0186645 20.5096 -0.000389201 16.1641 -0.000389201L16.1666 -0.00292969Z" fill="white"/>
<path d="M16.1642 7.78418C14.5392 7.78418 12.9508 8.26604 11.5997 9.16882C10.2486 10.0716 9.19549 11.3547 8.57365 12.856C7.9518 14.3573 7.7891 16.0092 8.10611 17.603C8.42313 19.1967 9.20562 20.6606 10.3546 21.8097C11.5037 22.9587 12.9676 23.7412 14.5613 24.0582C16.1551 24.3752 17.807 24.2125 19.3083 23.5907C20.8096 22.9688 22.0927 21.9158 22.9955 20.5647C23.8983 19.2135 24.3801 17.6251 24.3801 16.0001C24.3802 14.9212 24.1678 13.8528 23.7549 12.8559C23.342 11.8591 22.7369 10.9533 21.9739 10.1904C21.211 9.42745 20.3052 8.82227 19.3084 8.40941C18.3115 7.99655 17.2431 7.7841 16.1642 7.78418ZM16.1642 21.3351C15.109 21.3351 14.0775 21.0223 13.2002 20.436C12.3229 19.8498 11.6391 19.0166 11.2353 18.0417C10.8315 17.0669 10.7258 15.9942 10.9317 14.9593C11.1375 13.9244 11.6456 12.9738 12.3918 12.2277C13.1379 11.4816 14.0885 10.9735 15.1234 10.7676C16.1583 10.5618 17.231 10.6674 18.2058 11.0712C19.1807 11.475 20.0139 12.1588 20.6001 13.0361C21.1863 13.9135 21.4992 14.945 21.4992 16.0001C21.4992 17.4151 20.9371 18.772 19.9366 19.7726C18.9361 20.7731 17.5791 21.3351 16.1642 21.3351Z" fill="white"/>
<path d="M24.7051 9.37877C25.7655 9.37877 26.6251 8.51917 26.6251 7.45879C26.6251 6.39842 25.7655 5.53882 24.7051 5.53882C23.6448 5.53882 22.7852 6.39842 22.7852 7.45879C22.7852 8.51917 23.6448 9.37877 24.7051 9.37877Z" fill="white"/>
</g>
<defs>
<clipPath id="clip0_196_96">
<rect width="32" height="32" fill="white" transform="translate(0.164062)"/>
</clipPath>
</defs>
</svg>
