<svg width="35" height="34" viewBox="0 0 35 34" fill="none" xmlns="http://www.w3.org/2000/svg">
<path fill-rule="evenodd" clip-rule="evenodd" d="M30.0101 0C32.3028 0 34.1641 1.86137 34.1641 4.15398V29.846C34.1641 32.1386 32.3027 34 30.0101 34H4.31804C2.02543 34 0.164062 32.1386 0.164062 29.846V4.15398C0.164062 1.86137 2.02536 0 4.31804 0H30.0101V0ZM10.8197 28.1083V13.1193H5.83655V28.1083H10.8197ZM28.7852 28.1083V19.5127C28.7852 14.9086 26.3269 12.7668 23.0489 12.7668C20.4057 12.7668 19.2217 14.2205 18.5587 15.2415V13.1193H13.5769C13.6429 14.5258 13.5769 28.1083 13.5769 28.1083H18.5587V19.7374C18.5587 19.2893 18.5909 18.8414 18.7229 18.5212C19.0825 17.6263 19.9028 16.6994 21.2792 16.6994C23.0811 16.6994 23.8031 18.0745 23.8031 20.0886V28.1083H28.7852ZM8.36178 5.8917C6.65687 5.8917 5.54297 7.01257 5.54297 8.48167C5.54297 9.9199 6.623 11.0716 8.29584 11.0716H8.32798C10.0655 11.0716 11.1471 9.9199 11.1471 8.48167C11.1149 7.01463 10.0686 5.89488 8.36178 5.8917Z" fill="white"/>
</svg>
