<svg width="84" height="53" viewBox="0 0 84 53" fill="none" xmlns="http://www.w3.org/2000/svg">
<path d="M23.7921 0C25.7322 0 27.2659 0.643738 28.3933 1.93121C29.5468 3.21869 30.1236 5.45207 30.1236 8.63135V19.391H23.8315L23.7921 9.4196C23.7921 8.13212 23.5955 7.19936 23.2022 6.62131C22.8352 6.04326 22.1011 5.75423 21 5.75423C19.8989 5.75423 19.1517 6.04326 18.7584 6.62131C18.3914 7.19936 18.2079 8.13212 18.2079 9.4196V19.391H11.9157L11.8764 9.4196C11.8764 8.13212 11.6798 7.19936 11.2865 6.62131C10.9195 6.04326 10.1854 5.75423 9.08427 5.75423C7.98315 5.75423 7.23595 6.04326 6.8427 6.62131C6.47566 7.19936 6.29213 8.13212 6.29213 9.4196V19.391H0V0.197064H5.97753L6.29213 3.70478H6.41011C6.75094 2.54868 7.34082 1.64219 8.17978 0.985315C9.04494 0.328438 10.264 0 11.8371 0C13.4101 0 14.6423 0.328438 15.5337 0.985315C16.4513 1.64219 17.0412 2.54868 17.3034 3.70478H17.4213C17.7622 2.5224 18.4176 1.61591 19.3876 0.985315C20.3839 0.328438 21.8521 0 23.7921 0Z" fill="#313131"/>
<path d="M40.1508 0C42.6676 0 44.6994 0.26275 46.2463 0.788251C47.7931 1.31375 48.9204 2.28593 49.6283 3.70478C50.3624 5.09736 50.7294 7.12053 50.7294 9.77431V19.391H45.0272L44.8305 17.578H44.7126C44.2144 18.2349 43.441 18.7604 42.3923 19.1545C41.3436 19.5486 39.9804 19.7457 38.3024 19.7457C33.7669 19.7457 31.4991 17.6174 31.4991 13.3608C31.4991 11.5479 32.089 10.129 33.2687 9.1043C34.4747 8.0533 36.3624 7.52779 38.9317 7.52779H44.7519C44.5684 6.42424 44.0965 5.68854 43.3362 5.32069C42.5759 4.92657 41.2781 4.72951 39.4429 4.72951C38.2893 4.72951 37.1489 4.82147 36.0215 5.00539C34.9204 5.16304 33.9504 5.34697 33.1114 5.55717L32.9935 5.47834L33.0328 0.906489C33.5571 0.748839 34.2257 0.604326 35.0384 0.472951C35.8511 0.315301 36.7032 0.197063 37.5946 0.118238C38.5122 0.0394128 39.3642 0 40.1508 0ZM39.9148 15.095C41.5403 15.095 42.7594 14.8979 43.5721 14.5038C44.3848 14.0834 44.8043 13.4265 44.8305 12.5332V11.5479H40.3867C39.2332 11.5479 38.4204 11.7187 37.9485 12.0602C37.5028 12.3755 37.28 12.8091 37.28 13.3608C37.28 14.0177 37.5159 14.4775 37.9878 14.7403C38.4597 14.9768 39.1021 15.095 39.9148 15.095Z" fill="#313131"/>
<path d="M66.1685 9.61666L71.9887 19.391H64.9887L61.764 13.5185H61.6853L58.4606 19.391H51.3033L57.2809 9.61666V9.45901L51.7359 0.197064H58.6179L61.6853 6.18777H61.764L64.8314 0.197064H71.7134L66.1685 9.45901V9.61666Z" fill="#313131"/>
<path d="M36.9432 52.6453H30.6511V26.1207H36.9432V52.6453Z" fill="#313131"/>
<path d="M47.3754 33.2543C49.8922 33.2543 51.924 33.5171 53.4709 34.0426C55.0177 34.5681 56.145 35.5402 56.8529 36.9591C57.587 38.3517 57.954 40.3749 57.954 43.0286V52.6453H52.2518L52.0551 50.8323H51.9371C51.439 51.4892 50.6656 52.0147 49.6169 52.4088C48.5682 52.8029 47.2049 53 45.527 53C40.9915 53 38.7237 50.8717 38.7237 46.6152C38.7237 44.8022 39.3136 43.3833 40.4933 42.3586C41.6993 41.3076 43.587 40.7821 46.1562 40.7821H51.9765C51.7929 39.6786 51.321 38.9429 50.5607 38.575C49.8004 38.1809 48.5027 37.9838 46.6675 37.9838C45.5139 37.9838 44.3735 38.0758 43.2461 38.2597C42.145 38.4174 41.175 38.6013 40.336 38.8115L40.218 38.7327L40.2574 34.1608C40.7817 34.0032 41.4503 33.8586 42.263 33.7273C43.0757 33.5696 43.9278 33.4514 44.8192 33.3726C45.7368 33.2937 46.5888 33.2543 47.3754 33.2543ZM47.1394 48.3493C48.7649 48.3493 49.984 48.1523 50.7967 47.7581C51.6094 47.3377 52.0289 46.6809 52.0551 45.7875V44.8022H47.6113C46.4578 44.8022 45.645 44.973 45.1731 45.3146C44.7274 45.6299 44.5046 46.0634 44.5046 46.6152C44.5046 47.272 44.7405 47.7319 45.2124 47.9946C45.6843 48.2311 46.3267 48.3493 47.1394 48.3493Z" fill="#313131"/>
<path d="M66.4324 26.3177C66.5111 27.2636 66.5504 28.0519 66.5504 28.6825C66.5504 29.0503 66.5373 29.4313 66.5111 29.8254C66.5111 30.1933 66.4848 30.6137 66.4324 31.0866C65.8818 31.1917 65.3444 31.2706 64.82 31.3231C64.2957 31.3757 63.7714 31.4019 63.247 31.4019C62.7489 31.4019 62.2376 31.3757 61.7133 31.3231C61.2152 31.2706 60.7039 31.1917 60.1796 31.0866C60.1272 30.64 60.0878 30.2327 60.0616 29.8648C60.0354 29.4707 60.0223 29.0897 60.0223 28.7219C60.0223 28.3803 60.0354 28.0125 60.0616 27.6183C60.0878 27.2242 60.1272 26.7907 60.1796 26.3177C60.7039 26.1863 61.2283 26.1075 61.7526 26.0812C62.3032 26.0287 62.8406 26.0024 63.365 26.0024C63.8631 26.0024 64.3612 26.0287 64.8594 26.0812C65.3837 26.1075 65.9081 26.1863 66.4324 26.3177ZM66.4324 52.6453H60.1403V33.4514H66.4324V52.6453Z" fill="#313131"/>
<path d="M75.5056 52.6453H69.2135V33.4514H74.3258L74.8371 37.3926H74.955C75.191 35.9212 75.7547 34.8702 76.6461 34.2396C77.5375 33.5828 78.8614 33.2543 80.618 33.2543C81.3258 33.2543 81.9682 33.2937 82.5449 33.3726C83.1217 33.4251 83.6067 33.4777 84 33.5302V39.6786L83.9213 39.7574C83.5019 39.6523 83.0169 39.5603 82.4663 39.4815C81.9419 39.4027 81.339 39.3633 80.6573 39.3633C79.6873 39.3633 78.809 39.5209 78.0225 39.8362C77.2622 40.1515 76.6592 40.769 76.2135 41.6886C75.794 42.582 75.5843 43.922 75.5843 45.7087L75.5056 52.6453Z" fill="#313131"/>
</svg>
