<svg width="95" height="68" viewBox="0 0 95 68" fill="none" xmlns="http://www.w3.org/2000/svg">
<path d="M0 26.5227V0.340908H8.93182V5.31818H9.20455C9.75 3.68182 10.6818 2.38636 12 1.43182C13.3182 0.477272 14.8864 0 16.7045 0C18.5455 0 20.1307 0.488636 21.4602 1.46591C22.7898 2.43182 23.5909 3.71591 23.8636 5.31818H24.1364C24.5795 3.71591 25.5227 2.43182 26.9659 1.46591C28.4091 0.488636 30.1023 0 32.0455 0C34.5568 0 36.5909 0.806818 38.1477 2.42045C39.7159 4.03409 40.5 6.18182 40.5 8.86364V26.5227H31.0909V11.25C31.0909 10.1023 30.8011 9.20454 30.2216 8.55682C29.642 7.89773 28.8636 7.56818 27.8864 7.56818C26.9205 7.56818 26.1534 7.89773 25.5852 8.55682C25.0284 9.20454 24.75 10.1023 24.75 11.25V26.5227H15.75V11.25C15.75 10.1023 15.4602 9.20454 14.8807 8.55682C14.3011 7.89773 13.5227 7.56818 12.5455 7.56818C11.8977 7.56818 11.3409 7.71591 10.875 8.01136C10.4091 8.30682 10.0455 8.73295 9.78409 9.28977C9.53409 9.83523 9.40909 10.4886 9.40909 11.25V26.5227H0Z" fill="white"/>
<path d="M50.2761 26.9318C48.6056 26.9318 47.1284 26.6591 45.8443 26.1136C44.5715 25.5568 43.5715 24.7159 42.8443 23.5909C42.117 22.4659 41.7534 21.0341 41.7534 19.2955C41.7534 17.8636 41.9977 16.642 42.4863 15.6307C42.9749 14.608 43.6568 13.7727 44.5318 13.125C45.4068 12.4773 46.4238 11.983 47.5829 11.642C48.7534 11.3011 50.0147 11.0795 51.367 10.9773C52.8329 10.8636 54.009 10.7273 54.8954 10.5682C55.7931 10.3977 56.4409 10.1648 56.8386 9.86932C57.2363 9.5625 57.4352 9.15909 57.4352 8.65909V8.59091C57.4352 7.90909 57.1738 7.38636 56.6511 7.02273C56.1284 6.65909 55.4579 6.47727 54.6397 6.47727C53.742 6.47727 53.009 6.67614 52.4409 7.07386C51.884 7.46023 51.5488 8.05682 51.4352 8.86364H42.7761C42.8897 7.27273 43.3954 5.80682 44.2931 4.46591C45.2022 3.11364 46.5261 2.03409 48.2647 1.22727C50.0034 0.409091 52.1738 0 54.7761 0C56.6511 0 58.3329 0.221591 59.8215 0.664773C61.3102 1.09659 62.5772 1.70455 63.6227 2.48864C64.6681 3.26136 65.4636 4.17045 66.009 5.21591C66.5659 6.25 66.8443 7.375 66.8443 8.59091V26.5227H58.0488V22.8409H57.8443C57.3215 23.8182 56.6852 24.608 55.9352 25.2102C55.1965 25.8125 54.3499 26.25 53.3954 26.5227C52.4522 26.7955 51.4124 26.9318 50.2761 26.9318ZM53.3443 21C54.0602 21 54.7306 20.8523 55.3556 20.5568C55.992 20.2614 56.509 19.8352 56.9068 19.2784C57.3045 18.7216 57.5034 18.0455 57.5034 17.25V15.0682C57.2534 15.1705 56.9863 15.267 56.7022 15.358C56.4295 15.4489 56.134 15.5341 55.8159 15.6136C55.509 15.6932 55.1795 15.767 54.8272 15.8352C54.4863 15.9034 54.1284 15.9659 53.7534 16.0227C53.0261 16.1364 52.4295 16.3239 51.9636 16.5852C51.509 16.8352 51.1681 17.1477 50.9409 17.5227C50.7249 17.8864 50.617 18.2955 50.617 18.75C50.617 19.4773 50.8727 20.0341 51.384 20.4205C51.8954 20.8068 52.5488 21 53.3443 21Z" fill="white"/>
<path d="M77.2936 0.340908L81.1118 8.45455L85.1346 0.340908H94.4755L87.4527 13.4318L94.8164 26.5227H85.5436L81.1118 18.2045L76.8164 26.5227H67.4073L74.8391 13.4318L67.8846 0.340908H77.2936Z" fill="white"/>
<path d="M36.1316 32.6136V67.5227H26.7225V32.6136H36.1316Z" fill="white"/>
<path d="M46.0611 67.9318C44.3906 67.9318 42.9134 67.6591 41.6293 67.1136C40.3565 66.5568 39.3565 65.7159 38.6293 64.5909C37.902 63.4659 37.5384 62.0341 37.5384 60.2955C37.5384 58.8636 37.7827 57.642 38.2713 56.6307C38.7599 55.608 39.4418 54.7727 40.3168 54.125C41.1918 53.4773 42.2088 52.983 43.3679 52.642C44.5384 52.3011 45.7997 52.0795 47.152 51.9773C48.6179 51.8636 49.794 51.7273 50.6804 51.5682C51.5781 51.3977 52.2259 51.1648 52.6236 50.8693C53.0213 50.5625 53.2202 50.1591 53.2202 49.6591V49.5909C53.2202 48.9091 52.9588 48.3864 52.4361 48.0227C51.9134 47.6591 51.2429 47.4773 50.4247 47.4773C49.527 47.4773 48.794 47.6761 48.2259 48.0739C47.669 48.4602 47.3338 49.0568 47.2202 49.8636H38.5611C38.6747 48.2727 39.1804 46.8068 40.0781 45.4659C40.9872 44.1136 42.3111 43.0341 44.0497 42.2273C45.7884 41.4091 47.9588 41 50.5611 41C52.4361 41 54.1179 41.2216 55.6065 41.6648C57.0952 42.0966 58.3622 42.7045 59.4077 43.4886C60.4531 44.2614 61.2486 45.1705 61.794 46.2159C62.3509 47.25 62.6293 48.375 62.6293 49.5909V67.5227H53.8338V63.8409H53.6293C53.1065 64.8182 52.4702 65.608 51.7202 66.2102C50.9815 66.8125 50.1349 67.25 49.1804 67.5227C48.2372 67.7955 47.1974 67.9318 46.0611 67.9318ZM49.1293 62C49.8452 62 50.5156 61.8523 51.1406 61.5568C51.777 61.2614 52.294 60.8352 52.6918 60.2784C53.0895 59.7216 53.2884 59.0455 53.2884 58.25V56.0682C53.0384 56.1705 52.7713 56.267 52.4872 56.358C52.2145 56.4489 51.919 56.5341 51.6009 56.6136C51.294 56.6932 50.9645 56.767 50.6122 56.8352C50.2713 56.9034 49.9134 56.9659 49.5384 57.0227C48.8111 57.1364 48.2145 57.3239 47.7486 57.5852C47.294 57.8352 46.9531 58.1477 46.7259 58.5227C46.5099 58.8864 46.402 59.2955 46.402 59.75C46.402 60.4773 46.6577 61.0341 47.169 61.4205C47.6804 61.8068 48.3338 62 49.1293 62Z" fill="white"/>
<path d="M64.965 67.5227V41.3409H74.3741V67.5227H64.965ZM69.6696 38.6136C68.3968 38.6136 67.3059 38.1932 66.3968 37.3523C65.4877 36.5114 65.0332 35.5 65.0332 34.3182C65.0332 33.1364 65.4877 32.125 66.3968 31.2841C67.3059 30.4432 68.3968 30.0227 69.6696 30.0227C70.9536 30.0227 72.0446 30.4432 72.9423 31.2841C73.8514 32.125 74.3059 33.1364 74.3059 34.3182C74.3059 35.5 73.8514 36.5114 72.9423 37.3523C72.0446 38.1932 70.9536 38.6136 69.6696 38.6136Z" fill="white"/>
<path d="M77.0081 67.5227V41.3409H86.1445V46.3182H86.4172C86.8945 44.4773 87.6502 43.1307 88.6843 42.2784C89.7297 41.4261 90.9513 41 92.349 41C92.7581 41 93.1615 41.0341 93.5593 41.1023C93.9684 41.1591 94.3604 41.2443 94.7354 41.358V49.3864C94.2695 49.2273 93.6956 49.108 93.0138 49.0284C92.332 48.9489 91.7468 48.9091 91.2581 48.9091C90.3377 48.9091 89.5081 49.1193 88.7695 49.5398C88.0422 49.9489 87.4684 50.5284 87.0479 51.2784C86.6275 52.017 86.4172 52.8864 86.4172 53.8864V67.5227H77.0081Z" fill="white"/>
</svg>
