<?xml version="1.0" encoding="UTF-8"?>
<svg id="Layer_2" data-name="Layer 2" xmlns="http://www.w3.org/2000/svg" viewBox="0 0 1185.21 1184.72">
  <defs>
    <style>
      .cls-1 {
        font-size: 137px;
      }

      .cls-1, .cls-2, .cls-3, .cls-4, .cls-5, .cls-6, .cls-7, .cls-8, .cls-9, .cls-10, .cls-11, .cls-12, .cls-13, .cls-14, .cls-15, .cls-16 {
        fill: #313131;
        font-family: Inter;
        isolation: isolate;
      }

      .cls-2 {
        font-size: 136.99px;
      }

      .cls-3 {
        font-size: 137.01px;
      }

      .cls-4 {
        font-size: 137.01px;
      }

      .cls-5 {
        font-size: 137.01px;
      }

      .cls-6 {
        font-size: 137.01px;
      }

      .cls-7 {
        font-size: 136.99px;
      }

      .cls-8 {
        font-size: 136.99px;
      }

      .cls-9 {
        font-size: 137.01px;
      }

      .cls-10 {
        font-size: 137.01px;
      }

      .cls-11 {
        font-size: 136.99px;
      }

      .cls-12 {
        font-size: 136.99px;
      }

      .cls-13 {
        font-size: 136.99px;
      }

      .cls-14 {
        font-size: 137px;
      }

      .cls-15 {
        font-size: 137px;
      }

      .cls-16 {
        font-size: 137px;
      }
    </style>
  </defs>
  <g id="Layer_2-2" data-name="Layer 2">
    <g id="Layer_1-2" data-name="Layer 1-2">
      <text class="cls-12" transform="translate(257.86 256.32) rotate(-40.16)"><tspan x="0" y="0">c</tspan></text>
      <text class="cls-15" transform="translate(315.32 207.33) rotate(-30.93)"><tspan x="0" y="0">e</tspan></text>
      <text class="cls-15" transform="translate(382.6 167.83) rotate(-23.09)"><tspan x="0" y="0">r</tspan></text>
      <text class="cls-15" transform="translate(433.88 146.12) rotate(-16.43)"><tspan x="0" y="0">t</tspan></text>
      <text class="cls-15" transform="translate(481.88 132.25) rotate(-11.33)"><tspan x="0" y="0">i</tspan></text>
      <text class="cls-15" transform="translate(514.83 125.2) rotate(-6.28)"><tspan x="0" y="0">f</tspan></text>
      <text class="cls-10" transform="translate(564.24 120.03) rotate(-1.28)"><tspan x="0" y="0">i</tspan></text>
      <text class="cls-15" transform="translate(597.24 117.8) rotate(5.37)"><tspan x="0" y="0">e</tspan></text>
      <text class="cls-3" transform="translate(674.41 124.51) rotate(15.08)"><tspan x="0" y="0">d</tspan></text>
      <text class="cls-15" transform="translate(784.28 158.07) rotate(28.63)"><tspan x="0" y="0">c</tspan></text>
      <text class="cls-15" transform="translate(850.7 195.04) rotate(36.32)"><tspan x="0" y="0">r</tspan></text>
      <text class="cls-15" transform="translate(890.39 222.66) rotate(43.75)"><tspan x="0" y="0">e</tspan></text>
      <text class="cls-15" transform="translate(946.56 276.17) rotate(52.93)"><tspan x="0" y="0">a</tspan></text>
      <text class="cls-15" transform="translate(991.64 336.95) rotate(60.47)"><tspan x="0" y="0">t</tspan></text>
      <text class="cls-15" transform="translate(1016.04 380.57) rotate(65.55)"><tspan x="0" y="0">i</tspan></text>
      <text class="cls-15" transform="translate(1031.02 410.1) rotate(72.21)"><tspan x="0" y="0">v</tspan></text>
      <text class="cls-9" transform="translate(1053.81 479.3) rotate(81.21)"><tspan x="0" y="0">e</tspan></text>
      <text class="cls-8" transform="translate(1067.22 588.42) rotate(94.26)"><tspan x="0" y="0">c</tspan></text>
      <text class="cls-15" transform="translate(1062.1 663.72) rotate(103.64)"><tspan x="0" y="0">o</tspan></text>
      <text class="cls-15" transform="translate(1043.66 741.05) rotate(113.32)"><tspan x="0" y="0">o</tspan></text>
      <text class="cls-15" transform="translate(1010.65 814.43) rotate(120.21)"><tspan x="0" y="0">l</tspan></text>
      <text class="cls-11" transform="translate(977.31 870.75) rotate(131.11)"><tspan x="0" y="0">p</tspan></text>
      <text class="cls-15" transform="translate(923.61 932.5) rotate(140.68)"><tspan x="0" y="0">e</tspan></text>
      <text class="cls-5" transform="translate(862.81 981.4) rotate(148.48)"><tspan x="0" y="0">r</tspan></text>
      <text class="cls-15" transform="translate(819.44 1009.03) rotate(155.98)"><tspan x="0" y="0">s</tspan></text>
      <text class="cls-15" transform="translate(754.26 1038.75) rotate(165.19)"><tspan x="0" y="0">o</tspan></text>
      <text class="cls-2" transform="translate(677.46 1059.38) rotate(174.84)"><tspan x="0" y="0">n</tspan></text>
      <text class="cls-15" transform="translate(565.2 1065.5) rotate(-172.62)"><tspan x="0" y="0">•</tspan></text>
      <text class="cls-15" transform="translate(469.5 1052.97) rotate(-157.58)"><tspan x="0" y="0">m</tspan></text>
      <text class="cls-4" transform="translate(360.79 1006.18) rotate(-145.91)"><tspan x="0" y="0">a</tspan></text>
      <text class="cls-15" transform="translate(298.4 964.22) rotate(-136.96)"><tspan x="0" y="0">x</tspan></text>
      <text class="cls-7" transform="translate(223.58 888.13) rotate(-126.58)"><tspan x="0" y="0">l</tspan></text>
      <text class="cls-16" transform="translate(202.72 862.35) rotate(-119.99)"><tspan x="0" y="0">a</tspan></text>
      <text class="cls-14" transform="translate(165.68 795.99) rotate(-113.36)"><tspan x="0" y="0">i</tspan></text>
      <text class="cls-6" transform="translate(151.88 765.36) rotate(-108.13)"><tspan x="0" y="0">r</tspan></text>
      <text class="cls-1" transform="translate(127.26 685.45) rotate(-96.1)"><tspan x="0" y="0">2</tspan></text>
      <text class="cls-15" transform="translate(118.03 604.7) rotate(-86.04)"><tspan x="0" y="0">0</tspan></text>
      <text class="cls-15" transform="translate(123.97 517.51) rotate(-75.84)"><tspan x="0" y="0">2</tspan></text>
      <text class="cls-15" transform="translate(143.55 438.6) rotate(-65.94)"><tspan x="0" y="0">2</tspan></text>
      <text class="cls-13" transform="translate(193.79 336.35) rotate(-53.17)"><tspan x="0" y="0">•</tspan></text>
    </g>
  </g>
</svg>